# xmcd
#
# Track frame offsets:
#   150
#   13731
#   29470
#   42987
#   56299
#   71755
#   87603
#   99855
#   113794
#   127392
#   140862
#   155219
#   168476
#   181041
#   196660
#   209747
#   222350
#   236590
#   249723
#   262544
#   276333
#   291026
#   303063
#   316533
#   331077
#
# Disc length: 4570 seconds
#
# Revision: 2
# Processed by: cddbd v1.5.1PL0 Copyright (c) Steve Scherf et al.
# Submitted via: Media_Universe 3.0
#
DISCID=6f11d819
DTITLE=Various Artist - Old Time 1926-1938 - Les Triomphes De La Country Music Vol.16
DYEAR=2002
DGENRE=Old Time
TTITLE0=Uncle Dave Macon - Way Down The Old Plank Road
TTITLE1=Charlie Poole - White House Blues
TTITLE2=Frank Hutchison - Stackalee
TTITLE3=Dock Bogs - Sugar Baby
TTITLE4=Williamson Bros and Curry - Gonna Die With My Hammer In My Hand
TTITLE5=Frank Hutchison - The Last Scene Of The Titanic
TTITLE6=Doctor Lloyd and Howard Maxey - The Girl I Left Behind Me
TTITLE7=Allen Bros - Chattanooga Blues
TTITLE8=Sam and Kirk Mc Gee - Salty Dog Blues
TTITLE9=Bascom Lamar Lunsford - Dry Bones
TTITLE10=Uncle Dave Macon - Buddy Won't You Roll Down The Line
TTITLE11=Grant Bros - The Johnson Boys
TTITLE12=Fiddlin' Doc Roberts - Shortenin' Bread
TTITLE13=Dick Justice - Henry Lee
TTITLE14=Prince Albert Hunt - Wake Up Jacob
TTITLE15=Grayson and Whitter - Going Down The Lee Highway
TTITLE16=Grayson and Whitter - Tom Dooley
TTITLE17=Gid Tanner - Soldier's Joy
TTITLE18=Roy Harvey and Leonard Copeland - Just Pickin'
TTITLE19=Allen Bros - Maybe Next Week Sometime
TTITLE20=Clarence Ashley - The House Carpenter
TTITLE21=Prairie Ramblers - Shady Grove
TTITLE22=Riley Puckett - Chain Gang Blues
TTITLE23=Sam and Kirk McGee - Railroad Blues
TTITLE24=Coon Creek Girls - Poor Naomi Wise
EXTD=YEAR: 2002
EXTT0=
EXTT1=
EXTT2=
EXTT3=
EXTT4=
EXTT5=
EXTT6=
EXTT7=
EXTT8=
EXTT9=
EXTT10=
EXTT11=
EXTT12=
EXTT13=
EXTT14=
EXTT15=
EXTT16=
EXTT17=
EXTT18=
EXTT19=
EXTT20=
EXTT21=
EXTT22=
EXTT23=
EXTT24=
PLAYORDER=
